Coordinates
version=1
nRows=17
nColumns=24
inDegrees=yes

Units are S.I. units (second, meters, Newtons, ...)
Angles are in degrees.

endheader
time	pelvis_tilt	pelvis_list	pelvis_rotation	pelvis_tx	pelvis_ty	pelvis_tz	hip_flexion_r	hip_adduction_r	hip_rotation_r	knee_angle_r	ankle_angle_r	subtalar_angle_r	mtp_angle_r	hip_flexion_l	hip_adduction_l	hip_rotation_l	knee_angle_l	ankle_angle_l	subtalar_angle_l	mtp_angle_l	lumbar_extension	lumbar_bending	lumbar_rotation
      1.56500000	     24.11657079	     -0.31846119	     -3.23357960	      0.34065751	      1.03564774	      0.11883629	     -8.60860906	     -3.22323635	     -4.99502288	    -59.24760745	      2.13226693	    -11.54901136	     45.51087319	    -15.33091247	      3.82949361	     -8.57994643	    -17.29548814	     11.49469947	     -4.73962029	     -1.14194842	    -43.08640350	     -4.41103158	     -2.02509515
      1.57000000	     24.25744102	     -0.40798064	     -3.16476524	      0.34637730	      1.03659807	      0.11870467	     -8.16207028	     -3.06701849	     -4.95275251	    -58.95647387	      2.55359923	    -11.34412919	     45.26816389	    -16.12549402	      3.77386297	     -8.56311971	    -16.78551604	     11.57476388	     -4.54185783	     -1.15045219	    -43.23584917	     -4.29278792	     -1.99000610
      1.57500000	     24.35845419	     -0.51924658	     -3.07263020	      0.35204916	      1.03744904	      0.11861337	     -7.68702527	     -2.85734318	     -4.92565978	    -58.61570932	      3.04227596	    -11.23191976	     43.45625179	    -16.85320415	      3.67842457	     -8.54959362	    -16.32063047	     11.73252876	     -4.37166094	     -1.27772688	    -43.34859829	     -4.14492850	     -1.97350843
      1.58000000	     24.40260115	     -0.57091583	     -2.95303840	      0.35768980	      1.03817360	      0.11841865	     -7.15911703	     -2.72755690	     -4.95534789	    -58.22625163	      3.48917573	    -11.04449496	     43.40506253	    -17.50343679	      3.64176489	     -8.45655890	    -15.86102135	     11.77879591	     -4.28214577	     -1.28281470	    -43.40630716	     -4.02049247	     -2.02155072
      1.58500000	     24.49171993	     -0.65433712	     -2.81586356	      0.36335288	      1.03893176	      0.11824189	     -6.72224187	     -2.55283366	     -5.00441730	    -57.73398869	      3.86529991	    -10.95856770	     43.26039614	    -18.21269005	      3.56263803	     -8.37953573	    -15.39101359	     11.85949265	     -4.16179055	     -1.28315530	    -43.50749165	     -3.86212686	     -2.04178002
      1.59000000	     24.57657013	     -0.73317428	     -2.67411061	      0.36898343	      1.03963051	      0.11804748	     -6.29540218	     -2.38315873	     -5.06622969	    -57.18670139	      4.22296587	    -10.88386629	     43.05191728	    -18.91102534	      3.48445204	     -8.29633131	    -14.92682993	     11.93879631	     -4.02855422	     -1.28396550	    -43.60806953	     -3.70043506	     -2.06713593
      1.59500000	     24.68922730	     -0.81120010	     -2.51818643	      0.37461715	      1.04033032	      0.11786839	     -5.93064890	     -2.21153256	     -5.15191234	    -56.55846082	      4.53293347	    -10.79838558	     42.70789238	    -19.64427827	      3.39816146	     -8.20341227	    -14.45232409	     12.00633335	     -3.86672768	     -1.28903180	    -43.73729450	     -3.53591380	     -2.07743377
      1.60000000	     24.72795914	     -0.87532529	     -2.37139817	      0.38020897	      1.04085288	      0.11771544	     -5.47985839	     -2.04454816	     -5.22334614	    -55.93184787	      5.03716512	    -10.55314340	     40.12498008	    -20.26976903	      3.31736564	     -8.14880986	    -14.02475654	     12.11789927	     -3.68597037	     -1.39613293	    -43.79219495	     -3.38449050	     -2.09308890
      1.60500000	     24.80391013	     -0.93469289	     -2.19910739	      0.38580611	      1.04139328	      0.11751149	     -5.11374107	     -1.88763506	     -5.33109403	    -55.18795288	      5.32020112	    -10.48529073	     40.07298869	    -20.94418883	      3.24034768	     -8.02509895	    -13.57471748	     12.18086384	     -3.61038499	     -1.39319252	    -43.88582321	     -3.21985546	     -2.14343317
      1.61000000	     24.89176230	     -0.99534809	     -2.02487750	      0.39140626	      1.04189423	      0.11730858	     -4.78689933	     -1.73254583	     -5.45731049	    -54.37589230	      5.56064289	    -10.45241021	     39.91598636	    -21.63070351	      3.15427593	     -7.92972134	    -13.12794902	     12.24814727	     -3.45139901	     -1.38573522	    -43.99213593	     -3.05174938	     -2.16470067
      1.61500000	     24.97294356	     -1.06580790	     -1.84354114	      0.39700058	      1.04234217	      0.11712786	     -4.48195451	     -1.55773991	     -5.58074769	    -53.49168167	      5.79474292	    -10.40997875	     39.72120387	    -22.30046253	      3.04890496	     -7.84094838	    -12.69962475	     12.34441452	     -3.30346167	     -1.37434520	    -44.09116203	     -2.87156447	     -2.21409837
      1.62000000	     25.04420536	     -1.12403105	     -1.66967123	      0.40258523	      1.04271604	      0.11695908	     -4.18630164	     -1.39894614	     -5.70996994	    -52.55152133	      6.00386758	    -10.38115286	     39.47960213	    -22.95595659	      2.95496430	     -7.76031148	    -12.27485935	     12.43189286	     -3.14568602	     -1.36278270	    -44.18101415	     -2.70713429	     -2.25298921
      1.62500000	     25.10326067	     -1.17961183	     -1.49617536	      0.40818361	      1.04302872	      0.11679572	     -3.90598693	     -1.24482385	     -5.84972484	    -51.54473204	      6.18782328	    -10.35581258	     39.18005517	    -23.59375586	      2.85853286	     -7.68767007	    -11.85944763	     12.52140246	     -2.96868002	     -1.34994675	    -44.25629755	     -2.54200801	     -2.28618007
      1.63000000	     25.17709104	     -1.23515139	     -1.32233196	      0.41378269	      1.04329997	      0.11663221	     -3.67019365	     -1.08915173	     -5.98713401	    -50.47097771	      6.34460728	    -10.32922516	     38.84497367	    -24.24943462	      2.75989034	     -7.62953636	    -11.43849570	     12.61325886	     -2.78526853	     -1.33601359	    -44.34677229	     -2.37527876	     -2.31197158
      1.63500000	     25.21517531	     -1.32188558	     -1.20752224	      0.41940949	      1.04347673	      0.11660905	     -3.41025120	     -0.89358115	     -6.06270089	    -49.36094218	      6.61352481	    -10.16120132	     36.47363261	    -24.86253346	      2.63686620	     -7.73209557	    -11.03677658	     12.71862747	     -2.46946617	     -1.33827944	    -44.39542541	     -2.22560512	     -2.25622205
      1.64000000	     25.26285951	     -1.31976299	     -1.00613312	      0.42498243	      1.04359497	      0.11637654	     -3.19924087	     -0.81511232	     -6.27092694	    -48.17296127	      6.77018328	    -10.10641479	     36.38033279	    -25.47272915	      2.58525743	     -7.56700353	    -10.63541159	     12.80563892	     -2.38055189	     -1.32883198	    -44.46304186	     -2.08359904	     -2.35769620
      1.64500000	     25.31688316	     -1.36380092	     -0.84513875	      0.43060221	      1.04368591	      0.11625000	     -3.02999308	     -0.67494575	     -6.42032685	    -46.90131216	      6.84395329	    -10.09677471	     36.22272109	    -26.09897962	      2.49214914	     -7.53301113	    -10.22990586	     12.90176657	     -2.18197511	     -1.30858494	    -44.53193815	     -1.93269575	     -2.38261897
